<svg xmlns="http://www.w3.org/2000/svg" width="33" height="67" viewBox="0 0 33 67">
  <g id="Group_2" data-name="Group 2" transform="translate(-159 -693.468)">
    <g id="Rectangle_3" data-name="Rectangle 3" transform="translate(159 693.468)" fill="none" stroke="#fff" stroke-width="6">
      <path d="M15.75,0h.75A16.5,16.5,0,0,1,33,16.5v34A16.5,16.5,0,0,1,16.5,67h0A16.5,16.5,0,0,1,0,50.5V15.75A15.75,15.75,0,0,1,15.75,0Z" stroke="none"/>
      <path d="M15.789,3H16.5A13.5,13.5,0,0,1,30,16.5v34A13.5,13.5,0,0,1,16.5,64h0A13.5,13.5,0,0,1,3,50.5V15.789A12.789,12.789,0,0,1,15.789,3Z" fill="none"/>
    </g>
    <circle id="Ellipse_1" data-name="Ellipse 1" cx="8.5" cy="8.5" r="8.5" transform="translate(167 703.468)" fill="#fff"/>
  </g>
</svg>
